<svg width="676" height="451" viewBox="0 0 676 451" fill="none" xmlns="http://www.w3.org/2000/svg">
<g opacity="0.9">
<path d="M591.842 405.2L71.8425 390.3C47.6425 389.6 27.7425 371.1 25.3425 347L0.24249 99C-2.55751 70.9 19.2425 46.4 47.4425 46L626.242 38C655.443 37.6 678.342 63.1 674.742 92.1L641.042 363C637.943 387.6 616.642 405.9 591.842 405.2Z" fill="#EAF9F3"/>
<mask id="mask0_340:1459" style="mask-type:alpha" maskUnits="userSpaceOnUse" x="0" y="37" width="676" height="369">
<path d="M591.842 405.2L71.8425 390.3C47.6425 389.6 27.7425 371.1 25.3425 347L0.24249 99C-2.55751 70.9 19.2425 46.4 47.4425 46L626.242 38C655.443 37.6 678.342 63.1 674.742 92.1L641.042 363C637.943 387.6 616.642 405.9 591.842 405.2Z" fill="#EAF9F3"/>
</mask>
<g mask="url(#mask0_340:1459)">
<path d="M167.442 450.2H-248.058C-256.358 450.2 -263.058 443.5 -263.058 435.2V199.6C-263.058 191.3 -256.358 184.6 -248.058 184.6H167.442C175.742 184.6 182.442 191.3 182.442 199.6V435.2C182.442 443.5 175.742 450.2 167.442 450.2Z" stroke="#B8D8C7" stroke-width="1.8" stroke-miterlimit="10" stroke-linecap="round" stroke-linejoin="round"/>
<path d="M716.542 434.4H297.442C289.142 434.4 282.442 427.7 282.442 419.4V75.1001C282.442 66.8001 289.142 60.1001 297.442 60.1001H716.542C724.842 60.1001 731.542 66.8001 731.542 75.1001V419.4C731.542 427.7 724.842 434.4 716.542 434.4Z" stroke="#B8D8C7" stroke-width="1.8" stroke-miterlimit="10" stroke-linecap="round" stroke-linejoin="round"/>
<path d="M52.6424 184.6H32.3424C30.1424 184.6 28.3424 183 28.0424 180.8L26.4424 166.4C26.1424 163.9 28.1424 161.6 30.7424 161.6H54.2424C56.8424 161.6 58.7424 163.8 58.5424 166.4L56.9424 180.8C56.6424 182.9 54.8424 184.6 52.6424 184.6Z" stroke="#B8D8C7" stroke-width="1.8" stroke-miterlimit="10" stroke-linecap="round" stroke-linejoin="round"/>
<path d="M40.0424 161.6C40.0424 161.6 32.0424 160.8 30.4424 150C30.4424 150 37.6424 152.1 39.9424 157.2C39.9424 157.2 40.9424 145.8 46.3424 144.7C46.3424 144.7 48.7424 153.2 44.9424 157.4C44.9424 157.4 47.8424 152.6 55.2424 152.7C55.2424 152.7 53.3424 159.5 46.0424 161.5" fill="#B8D8C7"/>
<path d="M164.242 234.3H74.0423C71.7423 234.3 69.8423 232.4 69.8423 230.1V202.7C69.8423 200.4 71.7423 198.5 74.0423 198.5H164.242C166.542 198.5 168.442 200.4 168.442 202.7V230.1C168.542 232.4 166.642 234.3 164.242 234.3Z" stroke="#B8D8C7" stroke-width="1.8" stroke-miterlimit="10" stroke-linecap="round" stroke-linejoin="round"/>
<path d="M129.542 208.1H108.742C107.942 208.1 107.242 207.4 107.242 206.6C107.242 205.8 107.942 205.1 108.742 205.1H129.542C130.342 205.1 131.042 205.8 131.042 206.6C131.042 207.5 130.342 208.1 129.542 208.1Z" fill="#B8D8C7"/>
<path d="M164.242 280.1H74.0423C71.7423 280.1 69.8423 278.2 69.8423 275.9V248.5C69.8423 246.2 71.7423 244.3 74.0423 244.3H164.242C166.542 244.3 168.442 246.2 168.442 248.5V275.9C168.542 278.2 166.642 280.1 164.242 280.1Z" stroke="#B8D8C7" stroke-width="1.8" stroke-miterlimit="10" stroke-linecap="round" stroke-linejoin="round"/>
<path d="M129.542 253.9H108.742C107.942 253.9 107.242 253.2 107.242 252.4C107.242 251.6 107.942 250.9 108.742 250.9H129.542C130.342 250.9 131.042 251.6 131.042 252.4C131.042 253.3 130.342 253.9 129.542 253.9Z" fill="#B8D8C7"/>
<path d="M627.443 312.4H537.242C534.942 312.4 533.042 310.5 533.042 308.2V280.8C533.042 278.5 534.942 276.6 537.242 276.6H627.443C629.743 276.6 631.642 278.5 631.642 280.8V308.2C631.742 310.5 629.843 312.4 627.443 312.4Z" stroke="#B8D8C7" stroke-width="1.8" stroke-miterlimit="10" stroke-linecap="round" stroke-linejoin="round"/>
<path d="M592.742 286.3H571.942C571.142 286.3 570.442 285.6 570.442 284.8C570.442 284 571.142 283.3 571.942 283.3H592.742C593.542 283.3 594.242 284 594.242 284.8C594.242 285.6 593.542 286.3 592.742 286.3Z" fill="#B8D8C7"/>
<path d="M511.642 312.4H421.442C419.142 312.4 417.242 310.5 417.242 308.2V280.8C417.242 278.5 419.142 276.6 421.442 276.6H511.642C513.942 276.6 515.842 278.5 515.842 280.8V308.2C515.842 310.5 513.942 312.4 511.642 312.4Z" stroke="#B8D8C7" stroke-width="1.8" stroke-miterlimit="10" stroke-linecap="round" stroke-linejoin="round"/>
<path d="M476.942 286.3H456.142C455.342 286.3 454.642 285.6 454.642 284.8C454.642 284 455.342 283.3 456.142 283.3H476.942C477.742 283.3 478.442 284 478.442 284.8C478.442 285.6 477.742 286.3 476.942 286.3Z" fill="#B8D8C7"/>
<path d="M49.2423 234.3H-40.9577C-43.2577 234.3 -45.1577 232.4 -45.1577 230.1V202.7C-45.1577 200.4 -43.2577 198.5 -40.9577 198.5H49.2423C51.5423 198.5 53.4423 200.4 53.4423 202.7V230.1C53.5423 232.4 51.6423 234.3 49.2423 234.3Z" stroke="#B8D8C7" stroke-width="1.8" stroke-miterlimit="10" stroke-linecap="round" stroke-linejoin="round"/>
<path d="M14.5422 208.1H-6.25781C-7.05781 208.1 -7.75781 207.4 -7.75781 206.6C-7.75781 205.8 -7.05781 205.1 -6.25781 205.1H14.5422C15.3422 205.1 16.0422 205.8 16.0422 206.6C16.0422 207.5 15.4422 208.1 14.5422 208.1Z" fill="#B8D8C7"/>
<path d="M49.2423 280.1H-40.9577C-43.2577 280.1 -45.1577 278.2 -45.1577 275.9V248.5C-45.1577 246.2 -43.2577 244.3 -40.9577 244.3H49.2423C51.5423 244.3 53.4423 246.2 53.4423 248.5V275.9C53.5423 278.2 51.6423 280.1 49.2423 280.1Z" stroke="#B8D8C7" stroke-width="1.8" stroke-miterlimit="10" stroke-linecap="round" stroke-linejoin="round"/>
<path d="M14.5422 253.9H-6.25781C-7.05781 253.9 -7.75781 253.2 -7.75781 252.4C-7.75781 251.6 -7.05781 250.9 -6.25781 250.9H14.5422C15.3422 250.9 16.0422 251.6 16.0422 252.4C16.0422 253.3 15.4422 253.9 14.5422 253.9Z" fill="#B8D8C7"/>
<path d="M758.743 164.9H303.743C301.243 164.9 299.143 162.8 299.143 160.3V80.6C299.143 78.1 301.243 76 303.743 76H758.743C761.243 76 763.343 78.1 763.343 80.6V160.3C763.343 162.9 761.343 164.9 758.743 164.9Z" stroke="#B8D8C7" stroke-width="1.8" stroke-miterlimit="10" stroke-linecap="round" stroke-linejoin="round"/>
<path d="M758.743 263.9H303.743C301.243 263.9 299.143 261.8 299.143 259.3V179.6C299.143 177.1 301.243 175 303.743 175H758.743C761.243 175 763.343 177.1 763.343 179.6V259.3C763.343 261.8 761.343 263.9 758.743 263.9Z" stroke="#B8D8C7" stroke-width="1.8" stroke-miterlimit="10" stroke-linecap="round" stroke-linejoin="round"/>
<path d="M339.742 114.6H329.842V164.9H339.742V114.6Z" stroke="#B8D8C7" stroke-width="1.8" stroke-miterlimit="10" stroke-linecap="round" stroke-linejoin="round"/>
<path d="M349.943 128.3H339.643V164.9H349.943V128.3Z" stroke="#B8D8C7" stroke-width="1.8" stroke-miterlimit="10" stroke-linecap="round" stroke-linejoin="round"/>
<path d="M638.043 213.4H628.143V263.7H638.043V213.4Z" stroke="#B8D8C7" stroke-width="1.8" stroke-miterlimit="10" stroke-linecap="round" stroke-linejoin="round"/>
<path d="M648.342 227.1H638.042V263.7H648.342V227.1Z" stroke="#B8D8C7" stroke-width="1.8" stroke-miterlimit="10" stroke-linecap="round" stroke-linejoin="round"/>
<path d="M617.943 213.4H608.042V263.7H617.943V213.4Z" stroke="#B8D8C7" stroke-width="1.8" stroke-miterlimit="10" stroke-linecap="round" stroke-linejoin="round"/>
<path d="M608.187 215.275L598.747 212.294L583.601 260.26L593.042 263.241L608.187 215.275Z" stroke="#B8D8C7" stroke-width="1.8" stroke-miterlimit="10" stroke-linecap="round" stroke-linejoin="round"/>
<path d="M628.242 227.1H617.942V263.7H628.242V227.1Z" stroke="#B8D8C7" stroke-width="1.8" stroke-miterlimit="10" stroke-linecap="round" stroke-linejoin="round"/>
<path d="M504.543 114.6H494.643V164.9H504.543V114.6Z" stroke="#B8D8C7" stroke-width="1.8" stroke-miterlimit="10" stroke-linecap="round" stroke-linejoin="round"/>
<path d="M514.842 128.3H504.542V164.9H514.842V128.3Z" stroke="#B8D8C7" stroke-width="1.8" stroke-miterlimit="10" stroke-linecap="round" stroke-linejoin="round"/>
<path d="M406.742 114.6H396.842V164.9H406.742V114.6Z" stroke="#B8D8C7" stroke-width="1.8" stroke-miterlimit="10" stroke-linecap="round" stroke-linejoin="round"/>
<path d="M396.983 116.458L387.542 113.478L372.397 161.444L381.838 164.424L396.983 116.458Z" stroke="#B8D8C7" stroke-width="1.8" stroke-miterlimit="10" stroke-linecap="round" stroke-linejoin="round"/>
<path d="M417.042 128.3H406.742V164.9H417.042V128.3Z" stroke="#B8D8C7" stroke-width="1.8" stroke-miterlimit="10" stroke-linecap="round" stroke-linejoin="round"/>
<path d="M637.943 121.2L639.043 106.3C639.143 105.3 638.343 104.5 637.343 104.5H633.043H628.743C627.743 104.5 627.043 105.3 627.043 106.3L628.142 121.2C628.142 121.2 619.143 127 619.243 131.8C619.343 135.5 621.543 153.2 622.543 161C622.843 163.2 624.643 164.8 626.843 164.8H633.043H639.243C641.443 164.8 643.243 163.2 643.543 161C644.543 153.2 646.743 135.5 646.843 131.8C646.943 127 637.943 121.2 637.943 121.2Z" fill="#B8D8C7"/>
<path d="M598.042 121.2L599.142 106.3C599.242 105.3 598.442 104.5 597.442 104.5H593.142H588.842C587.842 104.5 587.142 105.3 587.142 106.3L588.242 121.2C588.242 121.2 579.242 127 579.342 131.8C579.442 135.5 581.642 153.2 582.642 161C582.942 163.2 584.742 164.8 586.942 164.8H593.142H599.342C601.542 164.8 603.342 163.2 603.642 161C604.642 153.2 606.842 135.5 606.942 131.8C607.042 127 598.042 121.2 598.042 121.2Z" fill="#B8D8C7"/>
<path d="M-1.25781 358.3H954.542" stroke="#B8D8C7" stroke-width="1.8" stroke-miterlimit="10" stroke-linecap="round" stroke-linejoin="round"/>
</g>
<path d="M342.943 270.9L341.643 277.2C341.143 279.8 338.743 281.8 336.043 281.8H323.143C320.443 281.8 318.143 279.9 317.543 277.2L316.243 270.9L329.543 270.3L342.943 270.9Z" fill="#22272E"/>
<path d="M333.043 278.7H325.843V382.7H333.043V278.7Z" fill="#22272E"/>
<path d="M332.943 389.3H326.043C324.943 389.3 323.943 388.4 323.943 387.2V367.5C323.943 366.4 324.843 365.4 326.043 365.4H332.943C334.043 365.4 335.043 366.3 335.043 367.5V387.2C334.943 388.3 334.043 389.3 332.943 389.3Z" fill="#22272E"/>
<path d="M330.242 383.3C330.242 383.3 322.942 389.2 319.042 411.3" stroke="#22272E" stroke-width="4" stroke-miterlimit="10" stroke-linecap="round" stroke-linejoin="round"/>
<path d="M327.643 384.6C327.643 384.6 305.643 379.3 293.643 405.4" stroke="#22272E" stroke-width="4" stroke-miterlimit="10" stroke-linecap="round" stroke-linejoin="round"/>
<path d="M331.443 384.1C331.443 384.1 351.143 380.6 363.543 408.6" stroke="#22272E" stroke-width="4" stroke-miterlimit="10" stroke-linecap="round" stroke-linejoin="round"/>
<path d="M293.643 414.3C298.558 414.3 302.543 410.315 302.543 405.4C302.543 400.485 298.558 396.5 293.643 396.5C288.727 396.5 284.743 400.485 284.743 405.4C284.743 410.315 288.727 414.3 293.643 414.3Z" fill="#6DAFA7"/>
<path d="M359.743 414.3C364.658 414.3 368.643 410.315 368.643 405.4C368.643 400.485 364.658 396.5 359.743 396.5C354.827 396.5 350.843 400.485 350.843 405.4C350.843 410.315 354.827 414.3 359.743 414.3Z" stroke="#22272E" stroke-width="1.8" stroke-miterlimit="10" stroke-linecap="round" stroke-linejoin="round"/>
<path d="M317.942 426.5C322.858 426.5 326.842 422.515 326.842 417.6C326.842 412.685 322.858 408.7 317.942 408.7C313.027 408.7 309.042 412.685 309.042 417.6C309.042 422.515 313.027 426.5 317.942 426.5Z" fill="#6DAFA7"/>
<path d="M329.643 272.8C363.277 272.8 390.543 267.427 390.543 260.8C390.543 254.173 363.277 248.8 329.643 248.8C296.009 248.8 268.743 254.173 268.743 260.8C268.743 267.427 296.009 272.8 329.643 272.8Z" fill="#FFE779"/>
<path d="M329.643 266.6C363.277 266.6 390.543 261.228 390.543 254.6C390.543 247.973 363.277 242.6 329.643 242.6C296.009 242.6 268.743 247.973 268.743 254.6C268.743 261.228 296.009 266.6 329.643 266.6Z" fill="#22272E"/>
<path d="M257.243 391.9C257.943 396.6 258.843 403.2 258.443 405.6C258.443 405.6 260.143 409.7 269.543 409.1C278.943 408.5 283.743 403.4 283.743 403.4C283.743 403.4 283.443 397.8 283.043 392.1C274.343 393.8 265.143 393.6 257.243 391.9Z" fill="#F4C2C9"/>
<path d="M256.442 387C256.442 387 256.842 389.1 257.242 392C265.142 393.7 274.342 393.9 283.142 392.2C282.842 386.6 282.542 380.9 282.542 379.7C282.442 377.2 255.242 379.5 256.442 387Z" fill="#E26E85"/>
<path d="M258.543 403.4C258.543 403.4 257.943 404.8 256.443 410.5C254.943 416.2 241.043 431.8 241.443 435.2C241.843 438.6 244.343 441.7 254.643 441.7C264.943 441.7 277.143 442.3 280.543 440.9C281.543 440.5 282.643 439.4 283.543 438.1C286.143 434.4 287.143 429.8 286.643 425.3C285.843 418 284.443 405.9 284.443 404.8C284.443 403.1 283.743 401.9 283.743 401.9C283.743 401.9 280.943 405.8 277.543 406.5C274.143 407.2 273.843 403 268.443 401.9C263.043 400.8 260.643 405.9 259.743 406.1C258.743 406.1 258.543 404.2 258.543 403.4Z" fill="#22272E"/>
<path d="M372.843 399.1C374.543 394 376.243 388.7 376.743 386.8C377.843 382.9 350.943 377.6 349.143 385.9L348.143 390.7C354.843 396.3 364.143 401.4 372.843 399.1Z" fill="#E26E85"/>
<path d="M348.142 390.7L345.042 405.3C345.042 405.3 346.643 408.2 353.943 410.4C361.243 412.6 369.142 410.4 369.142 410.4C369.142 410.4 370.942 404.8 372.842 399C364.142 401.4 354.842 396.3 348.142 390.7Z" fill="#F4C2C9"/>
<path d="M346.043 400.8C346.043 400.8 344.343 402.6 342.743 406.7C341.143 410.7 324.443 429.9 324.143 433.2C323.843 436.5 327.243 439.7 330.743 440.9C334.143 442 357.842 445.1 362.142 443.6C366.342 442.2 368.542 433.2 368.642 424C368.742 414.8 370.943 405.4 370.943 405.4C370.943 405.4 369.943 408 366.943 408.7C363.943 409.5 362.843 402.8 357.943 400.5C353.043 398.2 348.242 403.1 347.142 403.9C345.942 404.7 345.843 401.6 346.043 400.8Z" fill="#22272E"/>
<path d="M297.043 204.9C297.043 204.9 287.143 212.9 275.543 221.2C263.943 229.5 229.243 248.8 229.343 270.3C229.443 283.7 236.943 326.3 241.743 347.4C246.543 368.5 241.143 377.1 247.443 384.5C253.843 392 272.443 390 280.443 386.7C288.443 383.4 292.943 375.1 289.043 362.9C285.143 350.7 282.343 328.5 283.743 311.9C285.143 295.3 284.043 278.6 284.043 278.6C284.043 278.6 292.043 273.6 300.643 270.6C309.243 267.6 315.342 264.5 315.342 264.5C315.342 264.5 345.843 264.2 347.743 265.1C349.643 265.9 359.643 282.8 360.243 285.3C360.243 285.3 358.342 292 356.342 316.6C354.342 341.3 340.743 365.7 343.243 375.9C345.743 386.1 351.842 390.6 360.142 393.1C368.442 395.6 380.342 395.3 385.642 384C390.942 372.6 394.743 345.7 400.043 330.5C405.343 315.3 413.643 290 413.043 278.1C412.443 266.2 397.043 224.9 387.743 210.5C378.443 196.1 304.643 188.7 297.043 204.9Z" fill="#22272E"/>
<path d="M283.942 278.7C283.942 278.7 283.342 272 282.442 269.5" stroke="#63737A" stroke-width="1.8" stroke-miterlimit="10" stroke-linecap="round" stroke-linejoin="round"/>
<path d="M360.243 285.3C360.243 285.3 361.843 277.9 363.643 274" stroke="#63737A" stroke-width="1.8" stroke-miterlimit="10" stroke-linecap="round" stroke-linejoin="round"/>
<path d="M253.042 288.1C261.989 288.1 269.242 280.847 269.242 271.9C269.242 262.953 261.989 255.7 253.042 255.7C244.095 255.7 236.842 262.953 236.842 271.9C236.842 280.847 244.095 288.1 253.042 288.1Z" stroke="#63737A" stroke-width="1.8" stroke-miterlimit="10" stroke-linecap="round" stroke-linejoin="round"/>
<path d="M388.843 292.2C397.79 292.2 405.043 284.947 405.043 276C405.043 267.053 397.79 259.8 388.843 259.8C379.896 259.8 372.643 267.053 372.643 276C372.643 284.947 379.896 292.2 388.843 292.2Z" stroke="#63737A" stroke-width="1.8" stroke-miterlimit="10" stroke-linecap="round" stroke-linejoin="round"/>
<path d="M256.342 418.6C256.342 418.6 265.442 411.7 278.342 419.3" stroke="white" stroke-width="1.8" stroke-miterlimit="10" stroke-linecap="round" stroke-linejoin="round"/>
<path d="M253.042 425.3C253.042 425.3 262.142 418.4 275.042 426" stroke="white" stroke-width="1.8" stroke-miterlimit="10" stroke-linecap="round" stroke-linejoin="round"/>
<path d="M341.643 415.7C341.643 415.7 353.143 410.6 364.343 421.7" stroke="white" stroke-width="1.8" stroke-miterlimit="10" stroke-linecap="round" stroke-linejoin="round"/>
<path d="M338.243 422.2C338.243 422.2 349.743 417.1 360.943 428.2" stroke="white" stroke-width="1.8" stroke-miterlimit="10" stroke-linecap="round" stroke-linejoin="round"/>
<path d="M278.642 167.6C278.642 167.6 276.242 166.4 274.042 161.2C271.842 156 279.242 154.3 279.942 157.2C280.642 160 278.642 167.6 278.642 167.6Z" fill="#22272E"/>
<path d="M241.942 157.5C241.942 157.5 245.942 166.9 259.942 166.7C270.942 166.6 303.642 155.8 305.742 154.9C307.842 154 318.142 141.1 314.542 127.2C310.842 113.3 301.042 114.4 301.042 114.4C301.042 114.4 289.442 118.6 267.542 134C245.642 149.4 242.342 150.1 241.942 157.5Z" fill="#F4C2C9"/>
<path d="M275.042 147.4C275.042 147.4 278.042 158.6 278.642 167.6C278.642 167.6 306.642 157.9 309.042 155.9C311.342 153.9 316.642 135 312.142 125.6C307.642 116.2 301.542 112.7 301.542 112.7C301.542 112.7 289.342 119.1 276.442 127.9C263.442 136.8 275.042 147.4 275.042 147.4Z" fill="#6DAFA7"/>
<path d="M284.342 165.6C284.342 165.6 282.642 143.8 275.442 127.9" stroke="#22272E" stroke-width="1.8" stroke-miterlimit="10" stroke-linecap="round" stroke-linejoin="round"/>
<path d="M400.742 118.4C386.842 106.9 368.042 109.7 358.642 110.1C349.242 110.5 340.942 109.9 322.742 108.3C312.842 107.4 306.442 109.6 302.642 111.9C299.742 113.6 297.742 116.4 296.842 119.6C294.542 128.6 294.842 139 294.842 139C295.042 145.9 295.942 152.3 296.742 156.8C297.542 164.7 298.242 173.1 298.242 176.9C298.242 185.2 292.142 204.6 292.442 211.5C292.742 218.4 312.142 224.3 330.442 225.1C348.742 225.9 380.042 217.6 385.342 216.2C390.642 214.8 390.442 209.3 388.942 199.6C387.842 192.7 388.042 175.1 389.742 160.2C392.642 162.7 396.742 166.2 400.442 169.5C408.442 161.1 417.442 153.3 426.142 145.3C417.142 134.3 407.242 123.8 400.742 118.4Z" fill="#FFE779"/>
<path d="M328.342 120.6C328.342 120.6 328.142 132.4 341.242 133.2C354.342 134 364.542 120.5 362.542 111.4C360.642 102.4 328.342 107.3 328.342 120.6Z" fill="#F4C2C9"/>
<path d="M355.543 117.5C349.243 124.7 336.843 128.5 328.643 123.3C329.043 125.2 330.043 127.7 332.243 129.8C342.143 133.2 351.643 126.9 355.543 117.5Z" fill="#E26E85"/>
<path d="M319.043 81.1002C319.043 81.1002 320.143 89.2002 319.043 100.3C317.943 111.4 325.243 125 337.143 126.8C349.943 128.8 362.143 121.7 365.743 99.7002C369.443 77.7002 364.443 64.0002 348.043 62.7002C331.643 61.4002 318.943 63.4002 319.043 81.1002Z" fill="#F4C2C9"/>
<path d="M372.542 83.4002C371.942 88.3002 370.942 91.9002 369.742 94.4002C367.842 98.5002 365.842 99.8002 365.842 99.8002L353.842 93.2002C353.842 93.2002 320.042 101.1 319.142 81.1002C319.042 78.8002 319.142 76.5002 319.442 74.5002C320.142 69.6002 321.942 65.5002 324.642 62.2002C325.042 61.7002 325.542 61.1002 326.042 60.7002C332.042 54.8002 341.242 52.3002 352.042 54.0002C371.242 56.9002 373.942 70.4002 372.542 83.4002Z" fill="#F4C2C9"/>
<path d="M339.543 62.5C327.443 62.7 318.143 66 319.043 81.1C319.043 81.1 319.143 82.2 319.343 84.1C321.743 80.5 327.043 80.7 330.143 77.9C334.743 74 338.143 68.7 339.543 62.5Z" fill="#E26E85"/>
<path d="M374.243 76.8001C374.243 75.2001 373.743 73.8001 372.843 72.6001C373.143 71.8001 373.343 70.9001 373.343 70.0001C373.343 67.3001 371.843 65.0001 369.743 63.8001C369.443 60.2001 366.543 57.3001 362.843 57.2001C361.643 55.0001 359.243 53.5001 356.543 53.5001C355.543 53.5001 354.543 53.7001 353.643 54.1001C352.343 52.6001 350.443 51.6001 348.243 51.6001C346.543 51.6001 345.043 52.2001 343.843 53.1001C342.743 52.4001 341.343 51.9001 339.943 51.9001C337.543 51.9001 335.343 53.1001 334.043 55.0001C333.543 54.9001 332.943 54.8001 332.343 54.8001C329.143 54.8001 326.443 56.9001 325.543 59.8001C322.143 60.3001 319.443 63.3001 319.443 66.9001C319.443 67.3001 319.443 67.6001 319.543 67.9001C318.243 70.5001 318.443 74.6001 319.343 74.4001C321.443 73.9001 325.543 73.4001 329.643 75.4001C335.443 78.3001 338.043 77.6001 344.343 75.4001C351.343 73.0001 362.343 71.6001 363.943 84.0001C364.343 87.2001 360.743 94.3001 365.743 96.5001C367.043 97.1001 368.443 96.1001 369.743 94.2001C370.143 93.4001 370.543 92.4001 370.843 91.3001C372.943 90.0001 374.243 87.8001 374.243 85.2001C374.243 83.6001 373.743 82.2001 372.843 81.0001C373.743 79.9001 374.243 78.4001 374.243 76.8001Z" fill="#22272E"/>
<path d="M364.243 97.5002C364.243 97.5002 366.743 91.8002 369.843 93.5002C372.443 94.9002 370.143 108 363.143 108.1" fill="#F4C2C9"/>
<path d="M335.643 93.5C336.143 94.9 336.343 96.4 336.143 98C336.043 98.8 335.943 99.5 335.643 100.3C335.343 101 335.143 101.6 334.843 102.3C334.643 102.9 334.443 103.6 334.443 104C334.443 104.4 334.743 105 335.143 105.4C335.943 106.3 337.243 106.9 338.743 106.8C337.443 107.6 335.543 107.5 334.243 106.5C333.543 106 332.943 105.2 332.843 104.2C332.743 103.2 333.043 102.4 333.243 101.7C333.543 101 333.843 100.3 334.143 99.7C334.443 99.1 334.643 98.5 334.843 97.8C335.143 96.4 335.343 95 335.643 93.5Z" fill="#22272E"/>
<path d="M337.243 113.5C337.243 113.5 341.843 112 345.343 115.5" stroke="#22272E" stroke-width="1.8" stroke-miterlimit="10" stroke-linecap="round" stroke-linejoin="round"/>
<path d="M324.343 87.5C325.643 87.2 326.843 86.2 329.543 86.1C331.343 86 332.443 86.1 332.643 84.8C332.843 83.8 331.643 82.5 329.643 82.5C325.743 82.5 320.743 88.4 324.343 87.5Z" fill="#22272E"/>
<path d="M355.343 88.8999C354.043 88.4999 353.043 87.3999 350.343 86.9999C348.543 86.6999 347.443 86.6999 347.443 85.3999C347.343 84.2999 348.643 83.1999 350.643 83.3999C354.343 83.7999 358.843 90.0999 355.343 88.8999Z" fill="#22272E"/>
<path d="M329.543 97.4C330.443 97.4 331.243 96.7 331.343 95.8V94.8C331.343 93.9 330.643 93.1 329.743 93C328.843 93 328.043 93.7 327.943 94.6V95.6C327.843 96.6 328.643 97.4 329.543 97.4Z" fill="#22272E"/>
<path d="M349.143 98.2C350.043 98.2 350.843 97.5001 350.943 96.6001V95.6001C350.943 94.7001 350.243 93.9 349.343 93.8C348.443 93.8 347.643 94.5001 347.543 95.4001V96.4001C347.443 97.3001 348.143 98.1 349.143 98.2Z" fill="#22272E"/>
<path d="M368.542 98.4C368.142 98.3 367.742 98.3 367.642 98.5C367.542 98.6 367.443 98.9 367.443 99.2C367.343 99.5 367.342 99.8 367.342 100.2C367.342 100.6 367.242 100.9 367.242 101.3C367.142 102 366.942 102.8 366.542 103.6C366.342 104 365.842 104.5 365.342 104.6C364.842 104.7 364.442 104.5 364.042 104.3C364.442 104.1 364.843 104 364.943 103.8C365.143 103.6 365.142 103.4 365.142 103.1C365.242 102.5 365.242 101.8 365.342 101C365.442 100.6 365.442 100.2 365.542 99.9C365.642 99.5 365.742 99.1 366.042 98.7C366.242 98.3 366.642 97.9 367.342 97.8C368.042 97.6 368.342 98 368.542 98.4Z" fill="#22272E"/>
<path d="M308.443 99C308.443 99 303.943 102.8 295.943 117.2C289.543 128.8 284.043 146.1 276.243 155.8C274.443 158.1 272.443 160 270.243 161.2C268.843 162 267.143 162.8 265.443 163.4C253.643 167.3 236.943 164.3 241.443 146.6C245.943 129 276.243 107.4 286.143 91.8C296.043 76.2 308.743 93.2 308.443 99Z" fill="#F4C2C9"/>
<path d="M276.242 155.8C274.442 158.1 272.442 160 270.242 161.2C268.842 162 267.142 162.8 265.442 163.4" stroke="#E26E85" stroke-width="1.8" stroke-miterlimit="10" stroke-linecap="round" stroke-linejoin="round"/>
<path d="M309.442 67.9C309.442 67.9 314.842 65.3 316.742 64.4C318.642 63.5 323.042 62.6 324.642 62.1C326.342 61.7 326.442 64.2 323.742 66.6C321.042 69 316.242 75.5 312.942 76.2C309.742 77 307.842 69.9 309.442 67.9Z" fill="#E26E85"/>
<path d="M285.243 93.5C285.243 93.5 291.143 83.8 292.843 80.2C297.043 71.5 303.143 67.9 305.143 66.3C307.243 64.8 319.843 62.1 323.043 60.9C326.043 59.8 325.643 62.3 324.443 63.4C321.143 66.4 314.543 67.6 313.743 68.5C313.743 68.5 318.443 67.1 320.843 66.1C323.243 65.1 329.543 63.7 331.143 63.4C332.743 63.1 333.743 64.9 331.143 66.6C328.543 68.3 323.843 70.4 323.243 70.8C322.643 71.2 317.943 74.1 317.943 74.1C317.943 74.1 322.643 74.1 324.343 74C326.043 73.9 329.643 74.1 330.543 74.1C332.943 74.1 333.343 77.1 328.443 77.9C323.543 78.7 320.443 80 317.843 82.1C314.843 84.5 318.843 91.3 306.743 100.6C306.843 100.6 288.143 106.2 285.243 93.5Z" fill="#F4C2C9"/>
<path d="M317.943 74.1001C317.943 74.1001 317.343 74.2001 316.143 74.7001C314.943 75.2001 313.243 76.8001 313.243 76.8001" stroke="#E26E85" stroke-width="1.8" stroke-miterlimit="10" stroke-linecap="round" stroke-linejoin="round"/>
<path d="M313.743 68.5C313.743 68.5 312.043 69 310.843 69.5C309.643 70 308.243 71.5 308.243 71.5" stroke="#E26E85" stroke-width="1.8" stroke-miterlimit="10" stroke-linecap="round" stroke-linejoin="round"/>
<path d="M286.742 90.7C289.242 90.6 297.842 91.5 302.342 106.3C302.442 106.7 302.442 107.1 302.142 107.4L298.242 113.3C298.142 113.4 298.042 113.4 297.942 113.3C297.242 111.1 292.842 97.8 282.542 96.9C282.142 96.9 281.942 96.4 282.142 96.1C283.042 94.8 284.842 92.3 285.642 91.3C285.942 90.9 286.342 90.7 286.742 90.7Z" fill="#22272E"/>
<path d="M295.148 98.4317C296.557 95.9925 295.837 92.9406 293.541 91.6151C291.246 90.2896 288.243 91.1925 286.835 93.6317C285.426 96.071 286.146 99.1229 288.441 100.448C290.737 101.774 293.74 100.871 295.148 98.4317Z" fill="white"/>
<path d="M403.943 177.9C403.943 177.9 408.743 176.6 417.643 166.1C426.543 155.6 410.643 165.7 409.743 166.1C408.743 166.5 403.943 177.9 403.943 177.9Z" fill="#22272E"/>
<path d="M448.842 179.1C446.042 171.3 436.542 157.9 426.242 145.4C417.542 153.4 408.542 161.2 400.542 169.6C405.942 174.4 410.742 178.6 410.742 178.6C409.342 179.3 406.742 180.7 404.042 182C408.742 189.7 412.142 198.5 412.742 207.3C422.042 207.5 432.543 207.7 437.443 205.7C446.243 202.2 454.142 193.8 448.842 179.1Z" fill="#F4C2C9"/>
<path d="M395.143 186.4C395.143 186.4 393.443 184 392.643 183.1C391.843 182.2 387.243 179.1 385.343 177.5C383.443 175.9 381.843 178.2 383.543 181C385.243 183.8 386.243 188.6 387.543 189.9C388.743 191.2 395.343 190 395.143 186.4Z" fill="#F4C2C9"/>
<path d="M429.943 149.9C429.943 149.9 413.943 161.5 403.943 178C403.943 178 386.943 161.6 383.843 156C380.743 150.3 381.043 134.6 388.243 125.6C395.443 116.5 401.743 119.3 401.743 119.3C401.743 119.3 417.243 132.4 429.943 149.9Z" fill="#6DAFA7"/>
<path d="M399.443 173.5C399.443 173.5 410.043 154.6 426.043 144.8" stroke="#22272E" stroke-width="1.8" stroke-miterlimit="10" stroke-linecap="round" stroke-linejoin="round"/>
<path d="M410.643 178.6C410.643 178.6 421.143 171.9 429.843 173.6" stroke="#E26E85" stroke-width="1.8" stroke-miterlimit="10" stroke-linecap="round" stroke-linejoin="round"/>
<path d="M344.343 161.1L389.143 154C391.143 153.7 392.943 155.4 392.643 157.4L385.243 207.9C385.043 209.1 384.143 210.1 382.943 210.4L339.043 221.1C337.043 221.6 335.143 220 335.343 217.9L339.343 166.4C339.543 163.7 341.543 161.5 344.343 161.1Z" fill="#22272E"/>
<path d="M357.743 157.9L357.443 161.6C357.443 162.1 357.943 162.5 358.643 162.4L376.443 159.2C377.243 159.1 377.843 158.5 377.843 157.9L378.043 155.2C378.043 154.7 377.543 154.3 376.943 154.4L359.243 156.6C358.443 156.7 357.843 157.3 357.743 157.9Z" fill="#6DAFA7"/>
<path d="M395.143 186.4C395.143 186.4 389.143 185 387.743 185.4C386.343 185.8 381.443 186.4 377.843 187.2C374.243 188 367.743 187.7 365.343 188.6C362.943 189.6 363.843 191.7 363.843 191.7C363.843 191.7 361.343 191.2 360.543 192.5C359.343 194.4 361.843 195.6 361.843 195.6C359.843 195 358.143 196.3 359.043 198.2C359.743 199.6 363.043 201.7 365.943 203.1C368.843 204.5 374.443 206.3 374.443 206.3C374.443 206.3 371.843 206 368.743 205.7C365.843 205.5 364.543 206.9 366.243 208.5C367.943 210 378.443 213.1 382.343 212.2C386.243 211.4 390.543 208.9 396.343 207.4C398.843 206.8 405.343 207 412.643 207.2C412.043 198.4 408.743 189.6 403.943 181.9C399.643 184.2 395.143 186.4 395.143 186.4Z" fill="#F4C2C9"/>
<path d="M361.843 195.7C361.843 195.7 366.943 197.9 371.143 199.3C375.343 200.7 379.843 200.5 381.043 201" stroke="#E26E85" stroke-width="1.8" stroke-miterlimit="10" stroke-linecap="round" stroke-linejoin="round"/>
<path d="M374.443 206.3C374.443 206.3 378.243 207.7 380.343 207" stroke="#E26E85" stroke-width="1.8" stroke-miterlimit="10" stroke-linecap="round" stroke-linejoin="round"/>
<path d="M363.943 191.7C363.943 191.7 368.743 193.5 372.043 193.9C375.343 194.3 380.743 194.3 381.443 194.3" stroke="#E26E85" stroke-width="1.8" stroke-miterlimit="10" stroke-linecap="round" stroke-linejoin="round"/>
<path d="M344.343 139.5C345.005 139.5 345.543 138.963 345.543 138.3C345.543 137.637 345.005 137.1 344.343 137.1C343.68 137.1 343.143 137.637 343.143 138.3C343.143 138.963 343.68 139.5 344.343 139.5Z" fill="#22272E"/>
<path d="M339.943 133.1C339.943 133.1 338.743 135.6 339.543 146.6" stroke="#22272E" stroke-width="1.8" stroke-miterlimit="10" stroke-linecap="round" stroke-linejoin="round"/>
<path d="M110.542 251.6L108.042 446.7C108.042 448.8 109.742 450.5 111.742 450.5C113.742 450.5 115.442 448.9 115.442 446.9L123.742 251.6H110.542Z" fill="#B8D8C7"/>
<path d="M559.443 251.6L561.943 446.7C561.943 448.8 560.243 450.5 558.243 450.5C556.243 450.5 554.543 448.9 554.543 446.9L546.243 251.6H559.443Z" fill="#B8D8C7"/>
<path d="M123.843 251.6H110.543L110.343 266.5H123.243L123.843 251.6Z" fill="#6DAFA7"/>
<path d="M559.443 251.6H546.143L546.743 266.5H559.643L559.443 251.6Z" fill="#6DAFA7"/>
<path d="M167.343 248L165.443 393.7C165.443 395.3 166.643 396.5 168.243 396.5C169.743 396.5 170.943 395.3 171.043 393.8L177.243 247.9H167.343V248Z" fill="#B8D8C7"/>
<path d="M502.543 248L504.443 393.7C504.443 395.3 503.243 396.5 501.643 396.5C500.143 396.5 498.943 395.3 498.843 393.8L492.643 247.9H502.543V248Z" fill="#B8D8C7"/>
<path d="M587.243 247.6H82.7427L143.743 210.5H526.243L587.243 247.6Z" fill="white"/>
<path d="M587.243 247.6H82.7427V255.6H587.243V247.6Z" fill="#B8D8C7"/>
<path d="M204.143 213L235.143 234.5L241.743 234.6L284.043 215.7L204.143 213Z" fill="#63737A"/>
<path d="M241.742 234.6L245.742 234.7C247.742 234.8 249.742 234.3 251.542 233.5L282.042 219C283.342 218.4 284.142 217.1 284.042 215.7H283.942L241.742 234.6Z" fill="#22272E"/>
<path d="M138.542 230.7L244.042 234.8C247.042 234.9 249.342 232.1 248.642 229.2L233.542 167.3C232.642 163.7 229.442 161.1 225.642 161L120.542 159.4C118.342 159.4 116.642 161.5 117.242 163.6L134.242 227.2C134.842 229.3 136.542 230.7 138.542 230.7Z" fill="#22272E"/>
<path d="M184.089 201.596C186.22 198.846 185.293 194.559 182.019 192.022C178.744 189.485 174.362 189.658 172.231 192.409C170.1 195.159 171.027 199.446 174.301 201.983C177.576 204.52 181.958 204.347 184.089 201.596Z" fill="#63737A"/>
<path d="M151.842 118L85.0423 116.8C83.8423 116.8 82.8423 115.9 82.5423 114.7L78.0423 93.2001C77.7423 91.8001 78.8423 90.6001 80.2423 90.6001L147.042 91.8001C148.242 91.8001 149.242 92.7001 149.542 93.9001L154.042 115.4C154.242 116.8 153.242 118 151.842 118Z" fill="#F4C2C9"/>
<path d="M98.0063 102.412C99.0235 101.247 98.6679 99.2724 97.212 98.0009C95.756 96.7293 93.7511 96.6428 92.7339 97.8076C91.7167 98.9723 92.0723 100.947 93.5283 102.219C94.9842 103.49 96.9891 103.577 98.0063 102.412Z" fill="#22272E"/>
<path d="M100.743 111L94.4425 110.9C93.0425 110.9 91.6425 109.7 91.3425 108.3C90.6425 105.2 92.7425 102.7 95.8425 102.8C98.9425 102.9 102.043 105.4 102.743 108.5C103.043 110 102.143 111.1 100.743 111Z" fill="#22272E"/>
<path d="M126.843 106.5L109.143 106.2C108.743 106.2 108.443 105.9 108.343 105.5L107.843 103.2C107.743 102.7 108.143 102.2 108.643 102.2L126.343 102.5C126.743 102.5 127.043 102.8 127.143 103.2L127.643 105.5C127.743 106 127.343 106.5 126.843 106.5Z" fill="#6DAFA7"/>
<path d="M133.843 101.2L142.243 108.3" stroke="#22272E" stroke-width="1.8" stroke-miterlimit="10" stroke-linecap="round" stroke-linejoin="round"/>
<path d="M140.843 101.3L135.243 108.1" stroke="#22272E" stroke-width="1.8" stroke-miterlimit="10" stroke-linecap="round" stroke-linejoin="round"/>
<path d="M220.442 153.6L153.642 152.4C152.442 152.4 151.442 151.5 151.142 150.3L146.642 128.8C146.342 127.4 147.442 126.2 148.842 126.2L215.642 127.4C216.842 127.4 217.842 128.3 218.142 129.5L222.642 151C222.842 152.4 221.742 153.7 220.442 153.6Z" fill="#FFE779"/>
<path d="M166.589 137.98C167.607 136.815 167.251 134.84 165.795 133.569C164.339 132.297 162.334 132.211 161.317 133.375C160.3 134.54 160.655 136.515 162.111 137.787C163.567 139.058 165.572 139.145 166.589 137.98Z" fill="#22272E"/>
<path d="M169.343 146.6L163.043 146.5C161.643 146.5 160.243 145.3 159.943 143.9C159.243 140.8 161.343 138.3 164.443 138.4C167.543 138.5 170.643 141 171.343 144.1C171.643 145.6 170.743 146.7 169.343 146.6Z" fill="#22272E"/>
<path d="M195.343 142.1L177.643 141.8C177.243 141.8 176.943 141.5 176.843 141.1L176.343 138.8C176.243 138.3 176.643 137.8 177.143 137.8L194.843 138.1C195.243 138.1 195.543 138.4 195.643 138.8L196.143 141.1C196.243 141.6 195.843 142.1 195.343 142.1Z" fill="#6DAFA7"/>
<path d="M202.342 136.8L210.842 143.9" stroke="#22272E" stroke-width="1.8" stroke-miterlimit="10" stroke-linecap="round" stroke-linejoin="round"/>
<path d="M209.342 136.9L203.842 143.7" stroke="#22272E" stroke-width="1.8" stroke-miterlimit="10" stroke-linecap="round" stroke-linejoin="round"/>
<path d="M96.6426 117L100.343 134.4C100.843 136.7 102.843 138.4 105.243 138.4L109.143 138.5" stroke="#22272E" stroke-width="1.8" stroke-miterlimit="10" stroke-linecap="round" stroke-linejoin="round"/>
<path d="M133.542 139L148.842 139.3" stroke="#22272E" stroke-width="1.8" stroke-miterlimit="10" stroke-linecap="round" stroke-linejoin="round"/>
<path d="M132.443 132.3L128.943 136C128.543 136.4 128.043 136.5 127.543 136.3C126.043 135.6 124.143 135.9 123.043 137.1L119.143 141.2C117.943 142.4 117.743 144.3 118.543 145.8C118.743 146.3 118.743 146.8 118.343 147.2L114.843 150.9C114.243 151.6 113.043 151.3 112.843 150.4L112.543 149C111.843 146.1 112.643 143 114.743 140.9L122.543 132.7C124.643 130.5 127.643 129.6 130.543 130.1L131.943 130.4C132.643 130.5 133.043 131.6 132.443 132.3Z" fill="#22272E"/>
<path d="M300.342 45.1001C300.342 45.1001 295.942 49.9001 290.042 45.1001C284.142 40.3001 291.742 31.1001 294.142 33.6001C296.542 36.2001 283.642 41.0001 283.242 34.7001C282.842 28.4001 290.042 28.0001 279.942 20.1001" stroke="#6DAFA7" stroke-width="1.8" stroke-miterlimit="10" stroke-linecap="round" stroke-linejoin="round"/>
<path d="M333.642 35.3001C333.642 35.3001 340.342 32.9001 337.942 27.5001C335.542 22.1001 329.342 27.5001 333.642 27.5001C337.942 27.5001 341.042 22.9001 338.442 16.6001" stroke="#6DAFA7" stroke-width="1.8" stroke-miterlimit="10" stroke-linecap="round" stroke-linejoin="round"/>
<path d="M378.042 45.6002C378.042 45.6002 386.342 48.6002 384.142 42.8002C381.942 37.1002 382.142 35.0002 387.242 37.3002C392.342 39.6002 392.643 34.8002 394.443 33.7002" stroke="#6DAFA7" stroke-width="1.8" stroke-miterlimit="10" stroke-linecap="round" stroke-linejoin="round"/>
<path d="M421.742 82.6001L418.342 86.2001C417.842 86.8001 417.842 87.6001 418.342 88.2001C418.842 88.7001 419.642 88.8001 420.242 88.5001L424.142 86.1001L421.742 82.6001Z" fill="#22272E"/>
<path d="M451.943 91.3L452.842 96.1001C452.942 96.9001 452.542 97.6 451.742 97.8C451.042 98 450.342 97.7 450.042 97L448.042 92.9001L451.943 91.3Z" fill="#22272E"/>
<path d="M440.842 95.5C453.269 95.5 463.342 85.4264 463.342 73C463.342 60.5736 453.269 50.5 440.842 50.5C428.416 50.5 418.342 60.5736 418.342 73C418.342 85.4264 428.416 95.5 440.842 95.5Z" fill="#6DAFA7"/>
<path d="M440.842 87.5C448.85 87.5 455.342 81.0081 455.342 73C455.342 64.9919 448.85 58.5 440.842 58.5C432.834 58.5 426.342 64.9919 426.342 73C426.342 81.0081 432.834 87.5 440.842 87.5Z" fill="#FFE779"/>
<path d="M444.942 78.2L440.842 73L442.942 65.8" stroke="#63737A" stroke-width="1.8" stroke-miterlimit="10" stroke-linecap="round" stroke-linejoin="round"/>
<path d="M426.442 51.2001C425.842 51.4001 425.042 51.1001 424.942 50.4001C424.442 47.4001 426.142 44.4001 429.042 43.3001C431.942 42.2001 435.242 43.3001 436.842 45.9001C437.242 46.5001 436.942 47.3001 436.242 47.5001L426.442 51.2001Z" fill="#6DAFA7"/>
<path d="M464.742 62.3002C465.142 62.9002 466.042 62.9002 466.442 62.4002C468.442 60.1002 468.642 56.7002 466.742 54.2002C464.842 51.7002 461.442 50.9002 458.742 52.2002C458.142 52.5002 457.942 53.3002 458.342 53.9002L464.742 62.3002Z" fill="#6DAFA7"/>
<path d="M451.042 48.8001L445.142 47.1001C444.142 46.8001 443.642 45.8001 443.942 44.8001C444.242 43.8001 445.242 43.3001 446.242 43.6001L452.142 45.3001C453.142 45.6001 453.642 46.6001 453.342 47.6001C453.042 48.6001 452.042 49.1001 451.042 48.8001Z" fill="#6DAFA7"/>
<path d="M446.272 46.3272L444.654 51.897L448.88 53.1246L450.498 47.5548L446.272 46.3272Z" fill="#6DAFA7"/>
<path d="M401.543 25.3H370.343L367.143 27.4C366.143 28.1 364.743 27.3 364.743 26.1V4.10001C364.743 1.90001 366.543 0 368.843 0H401.543C403.743 0 405.643 1.80001 405.643 4.10001V21.3C405.543 23.5 403.743 25.3 401.543 25.3Z" fill="#F4C2C9"/>
<path d="M384.842 10H395.742" stroke="#22272E" stroke-width="1.8" stroke-miterlimit="10" stroke-linecap="round" stroke-linejoin="round"/>
<path d="M384.842 15.7H391.442" stroke="#22272E" stroke-width="1.8" stroke-miterlimit="10" stroke-linecap="round" stroke-linejoin="round"/>
<path d="M379.142 10H373.542V15.6H379.142V10Z" stroke="#22272E" stroke-width="1.8" stroke-miterlimit="10" stroke-linecap="round" stroke-linejoin="round"/>
<path d="M412.542 222.1C410.542 224.6 407.542 227.1 403.142 227.8C402.542 227.9 402.043 228 401.443 228C392.243 228.7 385.542 222.1 385.542 222.1H412.542Z" fill="#6DAFA7"/>
<path d="M460.042 216.4C460.042 216.4 457.042 226.2 447.442 227.9C445.842 228.2 444.342 228.2 442.942 228.1H401.442C402.042 228.1 402.542 228 403.142 227.9C407.542 227.1 410.542 224.6 412.542 222.2C414.842 219.3 415.742 216.5 415.742 216.5H460.042V216.4Z" fill="#22272E"/>
<path d="M578.243 163.4L487.743 157.4C484.843 157.2 482.543 154.7 482.743 151.8L487.343 62.1C487.543 58.6 490.043 55.7 493.443 55.1L585.743 37.2C589.243 36.5 592.343 39.3 592.143 42.8L584.743 157.8C584.443 161.1 581.543 163.7 578.243 163.4Z" fill="#63737A"/>
<path d="M575.243 163.3L484.743 157.3C481.843 157.1 479.543 154.6 479.743 151.7L484.343 61.9999C484.543 58.4999 487.043 55.5999 490.443 54.9999L582.743 37.0999C586.243 36.3999 589.343 39.1999 589.143 42.6999L581.743 157.7C581.443 161 578.543 163.5 575.243 163.3Z" fill="#22272E"/>
<path d="M567.143 80.7L496.943 88.2C495.743 88.3 494.743 87.4001 494.743 86.1001L495.543 70.2C495.543 69.3 496.243 68.5001 497.243 68.4001L567.743 57.4001C568.943 57.2001 570.043 58.2 570.043 59.5L568.843 78.9001C568.843 79.8001 568.143 80.6 567.143 80.7Z" fill="#6DAFA7"/>
<path d="M508.343 66.7L507.243 87.1" stroke="#22272E" stroke-width="1.8" stroke-miterlimit="10" stroke-linecap="round" stroke-linejoin="round"/>
<path d="M499.243 73.7002L504.243 81.8002" stroke="#22272E" stroke-width="1.8" stroke-miterlimit="10" stroke-linecap="round" stroke-linejoin="round"/>
<path d="M504.743 72.9001L498.743 82.5001" stroke="#22272E" stroke-width="1.8" stroke-miterlimit="10" stroke-linecap="round" stroke-linejoin="round"/>
<path d="M514.143 73.1L560.543 66.7" stroke="#22272E" stroke-width="1.8" stroke-miterlimit="10" stroke-linecap="round" stroke-linejoin="round"/>
<path d="M513.843 79.0999L538.843 75.8999" stroke="#22272E" stroke-width="1.8" stroke-miterlimit="10" stroke-linecap="round" stroke-linejoin="round"/>
<path d="M565.043 113L495.443 115.7C494.243 115.7 493.343 114.8 493.443 113.6L494.243 97.8C494.343 96.8 495.043 96 496.043 95.9L566.043 89.7C567.243 89.6 568.243 90.6 568.143 91.8L566.943 111C566.843 112.2 566.043 113 565.043 113Z" fill="#F4C2C9"/>
<path d="M506.843 95.1001L505.743 115.3" stroke="#22272E" stroke-width="1.8" stroke-miterlimit="10" stroke-linecap="round" stroke-linejoin="round"/>
<path d="M497.743 101.4L502.743 109.9" stroke="#22272E" stroke-width="1.8" stroke-miterlimit="10" stroke-linecap="round" stroke-linejoin="round"/>
<path d="M503.243 101L497.243 110.2" stroke="#22272E" stroke-width="1.8" stroke-miterlimit="10" stroke-linecap="round" stroke-linejoin="round"/>
<path d="M512.643 101.9L558.643 98.6001" stroke="#22272E" stroke-width="1.8" stroke-miterlimit="10" stroke-linecap="round" stroke-linejoin="round"/>
<path d="M512.243 107.8L537.043 106.4" stroke="#22272E" stroke-width="1.8" stroke-miterlimit="10" stroke-linecap="round" stroke-linejoin="round"/>
<path d="M562.943 145.1L493.943 143.1C492.843 143.1 491.943 142.1 492.043 141L492.843 125.3C492.943 124.3 493.743 123.5 494.743 123.4L564.143 122C565.243 122 566.243 122.9 566.143 124.1L564.943 143.2C564.843 144.3 563.943 145.2 562.943 145.1Z" fill="#FFE779"/>
<path d="M505.343 123.3L504.243 143.4" stroke="#22272E" stroke-width="1.8" stroke-miterlimit="10" stroke-linecap="round" stroke-linejoin="round"/>
<path d="M496.243 129L501.243 137.7" stroke="#22272E" stroke-width="1.8" stroke-miterlimit="10" stroke-linecap="round" stroke-linejoin="round"/>
<path d="M501.743 128.9L495.843 137.6" stroke="#22272E" stroke-width="1.8" stroke-miterlimit="10" stroke-linecap="round" stroke-linejoin="round"/>
<path d="M511.042 130.5L556.742 130.4" stroke="#22272E" stroke-width="1.8" stroke-miterlimit="10" stroke-linecap="round" stroke-linejoin="round"/>
<path d="M510.743 136.3L535.343 136.6" stroke="#22272E" stroke-width="1.8" stroke-miterlimit="10" stroke-linecap="round" stroke-linejoin="round"/>
<path d="M177.043 105.4L162.743 37.7999C162.443 36.2999 163.543 34.8999 165.143 34.8999H232.443C234.343 34.8999 236.043 36.2999 236.343 38.1999L247.543 106.5C247.743 108 246.643 109.3 245.143 109.3L180.943 108.5C178.943 108.5 177.443 107.2 177.043 105.4Z" fill="#B8D8C7"/>
<path d="M175.543 107L161.243 39.4C160.943 37.9 162.043 36.5 163.643 36.5H230.943C232.843 36.5 234.543 37.9 234.843 39.8L246.043 108.1C246.243 109.6 245.143 110.9 243.643 110.9L179.443 110.1C177.543 110.1 175.943 108.8 175.543 107Z" fill="#6DAFA7"/>
<path d="M183.243 101.6L171.343 45.2H226.943L236.243 102.2L183.243 101.6Z" stroke="#22272E" stroke-width="1.8" stroke-miterlimit="10" stroke-linecap="round" stroke-linejoin="round"/>
<path d="M187.743 45.2L199.743 101.8" stroke="#22272E" stroke-width="1.8" stroke-miterlimit="10" stroke-linecap="round" stroke-linejoin="round"/>
<path d="M174.343 59.5H228.943" stroke="#22272E" stroke-width="1.8" stroke-miterlimit="10" stroke-linecap="round" stroke-linejoin="round"/>
<path d="M177.243 73.2998H231.343" stroke="#22272E" stroke-width="1.8" stroke-miterlimit="10" stroke-linecap="round" stroke-linejoin="round"/>
<path d="M180.543 87.2998L233.943 87.9998" stroke="#22272E" stroke-width="1.8" stroke-miterlimit="10" stroke-linecap="round" stroke-linejoin="round"/>
<path d="M197.343 52.2H218.643" stroke="#22272E" stroke-width="1.8" stroke-miterlimit="10" stroke-linecap="round" stroke-linejoin="round"/>
<path d="M200.143 66.3999H221.443" stroke="#22272E" stroke-width="1.8" stroke-miterlimit="10" stroke-linecap="round" stroke-linejoin="round"/>
<path d="M203.343 80.2998L224.643 80.5998" stroke="#22272E" stroke-width="1.8" stroke-miterlimit="10" stroke-linecap="round" stroke-linejoin="round"/>
<path d="M206.343 94L226.843 94.5" stroke="#22272E" stroke-width="1.8" stroke-miterlimit="10" stroke-linecap="round" stroke-linejoin="round"/>
<path d="M177.143 48.7998L185.943 55.4998" stroke="#F4C2C9" stroke-width="1.8" stroke-miterlimit="10" stroke-linecap="round" stroke-linejoin="round"/>
<path d="M183.542 48.7998L179.042 55.4998" stroke="#F4C2C9" stroke-width="1.8" stroke-miterlimit="10" stroke-linecap="round" stroke-linejoin="round"/>
<path d="M182.743 77L191.543 83.6" stroke="#F4C2C9" stroke-width="1.8" stroke-miterlimit="10" stroke-linecap="round" stroke-linejoin="round"/>
<path d="M189.142 77L184.542 83.6" stroke="#F4C2C9" stroke-width="1.8" stroke-miterlimit="10" stroke-linecap="round" stroke-linejoin="round"/>
<path d="M185.943 90.8999L194.743 97.5999" stroke="#F4C2C9" stroke-width="1.8" stroke-miterlimit="10" stroke-linecap="round" stroke-linejoin="round"/>
<path d="M192.343 90.8999L187.843 97.5999" stroke="#F4C2C9" stroke-width="1.8" stroke-miterlimit="10" stroke-linecap="round" stroke-linejoin="round"/>
<path d="M180.543 65.5999L183.543 68.6998L187.843 63.0999" stroke="#FFE779" stroke-width="1.8" stroke-miterlimit="10" stroke-linecap="round" stroke-linejoin="round"/>
<path d="M496.342 161.2C496.342 161.2 496.442 151.7 493.942 146.2C493.942 146.2 466.942 151.1 461.942 154C461.942 154 466.442 158.5 467.842 164C469.342 169.4 496.142 170.5 496.342 161.2Z" fill="white"/>
<path d="M497.142 168.1C497.142 168.1 498.842 150.8 499.642 147.2C499.642 147.2 477.742 149 469.542 153.7L471.742 172L497.142 168.1Z" fill="#F4C2C9"/>
<path d="M521.442 181.5C521.442 181.5 521.342 168.7 524.842 162.6C524.842 162.6 504.242 163 499.642 165.7C495.042 168.4 495.642 181.4 495.642 181.4C495.642 181.4 520.542 182.9 521.442 181.5Z" fill="white"/>
<path d="M524.843 175.9H502.143V238.4H524.843V175.9Z" fill="#6DAFA7"/>
<path d="M513.543 229.8C515.973 229.8 517.943 227.83 517.943 225.4C517.943 222.97 515.973 221 513.543 221C511.113 221 509.143 222.97 509.143 225.4C509.143 227.83 511.113 229.8 513.543 229.8Z" stroke="#22272E" stroke-width="1.8" stroke-miterlimit="10" stroke-linecap="round" stroke-linejoin="round"/>
<path d="M479.442 238.5V161.2L465.842 164.5V230.4L479.442 238.5Z" fill="#6DAFA7"/>
<path d="M502.142 161.2H479.442V238.5H502.142V161.2Z" fill="#FFE779"/>
<path d="M490.742 229.8C493.172 229.8 495.142 227.83 495.142 225.4C495.142 222.97 493.172 221 490.742 221C488.312 221 486.342 222.97 486.342 225.4C486.342 227.83 488.312 229.8 490.742 229.8Z" stroke="#22272E" stroke-width="1.8" stroke-miterlimit="10" stroke-linecap="round" stroke-linejoin="round"/>
<path d="M485.242 208.5H496.342" stroke="#22272E" stroke-width="1.8" stroke-miterlimit="10" stroke-linecap="round" stroke-linejoin="round"/>
<path d="M485.242 212.9H496.342" stroke="#22272E" stroke-width="1.8" stroke-miterlimit="10" stroke-linecap="round" stroke-linejoin="round"/>
</g>
</svg>
